<?xml version="1.0" encoding="utf-8"?>
<!DOCTYPE svg PUBLIC "-//W3C//DTD SVG 1.1//EN" "http://www.w3.org/Graphics/SVG/1.1/DTD/svg11.dtd">
<svg version="1.1" id="Layer_1" xmlns="http://www.w3.org/2000/svg" xmlns:xlink="http://www.w3.org/1999/xlink" x="0px" y="0px"
	 width="32px" height="32px" viewBox="13.5 23.9 32 32" enable-background="new 13.5 23.9 32 32" xml:space="preserve">
<path fill="#2ABBF0" d="M29.5,24.4c-6.4,0-11.6,5.1-11.6,11.4c0,7.8,10.4,19.3,10.9,19.7c0.4,0.4,1.1,0.5,1.5,0.1c0,0,0,0,0.1-0.1
	c0.4-0.5,10.9-11.9,10.9-19.7C41.1,29.5,35.9,24.4,29.5,24.4z M29.5,41.6c-3.2-0.1-5.7-2.7-5.6-5.9c0.1-3.2,2.7-5.7,5.9-5.6
	c3.1,0.1,5.6,2.6,5.6,5.7C35.3,39,32.7,41.6,29.5,41.6L29.5,41.6z"/>
</svg>
