<?xml version="1.0" encoding="utf-8"?>
<!-- Generator: Adobe Illustrator 17.1.0, SVG Export Plug-In . SVG Version: 6.00 Build 0)  -->
<!DOCTYPE svg PUBLIC "-//W3C//DTD SVG 1.1//EN" "http://www.w3.org/Graphics/SVG/1.1/DTD/svg11.dtd">
<svg version="1.1" id="Layer_1" xmlns="http://www.w3.org/2000/svg" xmlns:xlink="http://www.w3.org/1999/xlink" x="0px" y="0px"
	 width="32px" height="32px" viewBox="-8.5 -8.5 32 32" enable-background="new -8.5 -8.5 32 32" xml:space="preserve">
<path d="M22.4,16.5l-0.1-0.5c-0.5-1.2-1.4-2-2.6-2.5l-4-1.1c-1.2-0.3-2.5,0.1-3.4,0.9l-1.4,1.4C5.6,13.4,1.6,9.4,0.2,4.1l1.4-1.4
	c0.8-0.9,1.1-2.2,0.9-3.4l-1.1-4C1-5.8,0.1-6.8-1.1-7.2l-0.4-0.1c-1.2-0.3-2.4,0-3.4,0.8L-7-4.4C-7.3-4-7.5-3.5-7.6-3
	c-0.2,14,11,25.4,25,25.6c0.2,0,0.3,0,0.5,0c0.5-0.1,1.1-0.3,1.5-0.6l2.1-2.1C22.4,18.9,22.7,17.7,22.4,16.5z"/>
</svg>
