<?xml version="1.0" encoding="utf-8"?>
<!-- Generator: Adobe Illustrator 17.1.0, SVG Export Plug-In . SVG Version: 6.00 Build 0)  -->
<!DOCTYPE svg PUBLIC "-//W3C//DTD SVG 1.1//EN" "http://www.w3.org/Graphics/SVG/1.1/DTD/svg11.dtd">
<svg version="1.1" id="Layer_1" xmlns="http://www.w3.org/2000/svg" xmlns:xlink="http://www.w3.org/1999/xlink" x="0px" y="0px"
	 width="23px" height="22.5px" viewBox="0 0 23 22.5" enable-background="new 0 0 23 22.5" xml:space="preserve">
<path d="M16.2,14.3c0.2-0.3,0.4-0.5,0.5-0.8c2.5-4.3,1-9.8-3.3-12.3c-4.3-2.5-9.8-1-12.3,3.3c-2.5,4.3-1,9.8,3.3,12.3
	c3.4,2,7.6,1.5,10.4-1l6.7,6.7l1.4-1.4L16.2,14.3z M9,16c-3.9,0-7-3.1-7-7s3.1-7,7-7s7,3.1,7,7S12.9,16,9,16z"/>
</svg>
