<svg xmlns="http://www.w3.org/2000/svg" width="189.5" height="56"><path d="M78.7 31.6h-6.4l-1.4 4.5h-2.6l5.2-15.7h4.2l5.2 15.7h-2.7l-1.5-4.5zM73 29.3h4.9l-2-6.3H75l-2 6.3zm25.3 4.4v2.4H86.7V20.4H98v2.4h-8.6v4h6.8v2.4h-6.8v4.5h8.9zm11.5-13.3c3.4 0 5.3 1.8 5.3 4.7 0 1.9-.8 3.3-2.4 4.1l2.4 6.9h-2.7l-2.2-6.3c-.5.1-.9 0-1.4 0h-3.7V36h-2.6V20.4h7.3zm-4.6 7.2h4.2c2.2 0 3-.9 3-2.4 0-1.6-.8-2.4-3-2.4h-4.2v4.8zm28.8.7c0 4.6-2.6 8.1-7.5 8.1s-7.5-3.6-7.5-8.1c0-4.6 2.6-8.1 7.5-8.1 4.9-.1 7.5 3.5 7.5 8.1zm-2.7 0c0-3.1-1.5-5.7-4.8-5.7s-4.8 2.6-4.8 5.7 1.5 5.7 4.8 5.7c3.4 0 4.8-2.6 4.8-5.7zm18.1-5.6h-5v13.4h-2.6V22.7h-5v-2.3h12.7v2.3zm15.4 11v2.4h-11.6V20.4h11.3v2.4h-8.6v4h6.8v2.4h-6.8v4.5h8.9zm17-2.3c-.5 3-2.8 5-6.4 5-4.7 0-7.4-3.4-7.4-8.1 0-4.7 2.7-8.1 7.4-8.1 3.3 0 5.6 1.8 6.2 4.6h-2.8c-.5-1.5-1.6-2.2-3.4-2.2-3.2 0-4.7 2.6-4.7 5.7s1.5 5.7 4.7 5.7c1.9 0 3.2-1 3.6-2.6h2.8z" fill="#FFF"/><circle fill="#FFF" cx="28" cy="28" r="28"/><path d="M16.8 15.1l17.4.6-4.5-2.7H16.3zm.7 2.9l21.9.7-4.6-2.7H17zm-2.1-8.8l8.4.3L19.5 7h-4.7zm.7 3l12.9.4-4.4-2.6h-9.1zm2.1 8.7l26.5.9-4.8-2.8H17.8zm.4-14.5L14 3.8l.6 2.5zm.4 17.4l30.9 1.1L45 22H18.5zm37 4.7l-.8-.5H20l-6 24.2 5.7-3.2h-3.8l4.2-.2L25 46h-7.2l7.9-.4 4.7-2.6H19.7l11.6-.5 4.4-2.5H21.6l15.3-.7L41 37H23.5l19-.9 3.8-2.1H25.4l22.7-1 3.5-2H27.4l26.3-1.2zm-36.3-1.7L55.1 28l-5-3H19.3z" fill="#226BC5"/></svg>