<?xml version="1.0" encoding="utf-8"?>
<!-- Generator: Adobe Illustrator 17.1.0, SVG Export Plug-In . SVG Version: 6.00 Build 0)  -->
<!DOCTYPE svg PUBLIC "-//W3C//DTD SVG 1.1//EN" "http://www.w3.org/Graphics/SVG/1.1/DTD/svg11.dtd">
<svg version="1.1" id="Layer_1" xmlns="http://www.w3.org/2000/svg" xmlns:xlink="http://www.w3.org/1999/xlink" x="0px" y="0px"
	 width="189.5px" height="56px" viewBox="0 0 189.5 56" enable-background="new 0 0 189.5 56" xml:space="preserve">
<g>
	<path fill="#FFFFFF" d="M78.7,31.6h-6.4l-1.4,4.5h-2.6l5.2-15.7h4.2l5.2,15.7h-2.7L78.7,31.6z M73,29.3h4.9l-2-6.3h-0.9L73,29.3z"
		/>
	<path fill="#FFFFFF" d="M87.3,31.7c0.4,1.5,1.7,2.4,3.6,2.4c2.9,0,4.4-2.1,4.6-4.8h-6.6v-2.4h6.6c-0.3-2.5-1.7-4.4-4.5-4.4
		c-1.9,0-3,0.8-3.5,2.1h-2.8c0.6-2.7,2.9-4.5,6.2-4.5c4.7,0,7.3,3.4,7.3,8.1c0,4.7-2.6,8.1-7.4,8.1c-3.5,0-5.9-2-6.4-4.8H87.3z"/>
	<path fill="#FFFFFF" d="M108.3,20.4c3.5,0,5.5,1.8,5.5,4.8c0,3.1-2,4.9-5.5,4.9h-4.3v6h-2.6V20.4H108.3z M107.9,27.8
		c2.4,0,3.2-1,3.2-2.6c0-1.6-0.9-2.5-3.2-2.5h-3.9v5.1H107.9z"/>
	<path fill="#FFFFFF" d="M131.3,28.3c0,4.6-2.6,8.1-7.5,8.1c-4.9,0-7.5-3.6-7.5-8.1c0-4.6,2.6-8.1,7.5-8.1
		C128.7,20.1,131.3,23.7,131.3,28.3z M128.6,28.3c0-3.1-1.5-5.7-4.8-5.7c-3.3,0-4.8,2.6-4.8,5.7s1.5,5.7,4.8,5.7
		C127.1,34,128.6,31.4,128.6,28.3z"/>
	<path fill="#FFFFFF" d="M145.6,22.7h-5v13.4h-2.6V22.7h-5v-2.3h12.7V22.7z"/>
	<path fill="#FFFFFF" d="M159.7,33.7v2.4h-11.6V20.4h11.3v2.4h-8.6v4h6.8v2.4h-6.8v4.5H159.7z"/>
	<path fill="#FFFFFF" d="M169.1,29.3h-0.7l-3.7,6.8h-2.9l4.5-8.3l-3.9-7.4h2.8l3.2,6h0.7l3.2-6h2.8l-3.9,7.3l4.5,8.4h-3L169.1,29.3z
		"/>
</g>
<circle id="circle" fill="#FFFFFF" cx="28" cy="28" r="28"/>
<g>
	<polygon fill="#226BC5" points="16.8,15.1 34.2,15.7 29.7,13 16.3,13 	"/>
	<polygon fill="#226BC5" points="17.5,18 39.4,18.7 34.8,16 17,16 	"/>
	<polygon fill="#226BC5" points="15.4,9.2 23.8,9.5 19.5,7 14.8,7 	"/>
	<polygon fill="#226BC5" points="16.1,12.2 29,12.6 24.6,10 15.5,10 	"/>
	<polygon fill="#226BC5" points="18.2,20.9 44.7,21.8 39.9,19 17.8,19 	"/>
	<polygon fill="#226BC5" points="18.6,6.4 14,3.8 14.6,6.3 	"/>
	<polygon fill="#226BC5" points="19,23.8 49.9,24.9 45,22 18.5,22 	"/>
	<polygon fill="#226BC5" points="56,28.5 55.2,28 20,28 14,52.2 19.7,49 15.9,49 20.1,48.8 25,46 17.8,46 25.7,45.6 30.4,43 
		19.7,43 31.3,42.5 35.7,40 21.6,40 36.9,39.3 41,37 23.5,37 42.5,36.1 46.3,34 25.4,34 48.1,33 51.6,31 27.4,31 53.7,29.8 	"/>
	<polygon fill="#226BC5" points="19.7,26.8 55.1,28 50.1,25 19.3,25 	"/>
</g>
</svg>
